<mxfile host="app.diagrams.net" agent="Mozilla/5.0 (Windows NT 10.0; Win64; x64) AppleWebKit/537.36 (KHTML, like Gecko) Chrome/133.0.0.0 Safari/537.36" version="26.0.16">
  <diagram name="Страница — 1" id="rYExP4IJ-PTcHGYCF0Hm">
    <mxGraphModel dx="1434" dy="746" grid="1" gridSize="10" guides="1" tooltips="1" connect="1" arrows="1" fold="1" page="1" pageScale="1" pageWidth="827" pageHeight="1169" math="0" shadow="0">
      <root>
        <mxCell id="0" />
        <mxCell id="1" parent="0" />
        <mxCell id="Qq2-9RFRCcytEWmPRLZd-66" value="" style="edgeStyle=orthogonalEdgeStyle;rounded=0;orthogonalLoop=1;jettySize=auto;html=1;" edge="1" parent="1" source="Qq2-9RFRCcytEWmPRLZd-2" target="Qq2-9RFRCcytEWmPRLZd-64">
          <mxGeometry relative="1" as="geometry" />
        </mxCell>
        <mxCell id="Qq2-9RFRCcytEWmPRLZd-2" value="Ввод строки&lt;div&gt;str = input&lt;/div&gt;" style="shape=parallelogram;perimeter=parallelogramPerimeter;whiteSpace=wrap;html=1;fixedSize=1;" vertex="1" parent="1">
          <mxGeometry x="340" y="190" width="120" height="60" as="geometry" />
        </mxCell>
        <mxCell id="Qq2-9RFRCcytEWmPRLZd-65" value="" style="edgeStyle=orthogonalEdgeStyle;rounded=0;orthogonalLoop=1;jettySize=auto;html=1;" edge="1" parent="1" source="Qq2-9RFRCcytEWmPRLZd-7" target="Qq2-9RFRCcytEWmPRLZd-2">
          <mxGeometry relative="1" as="geometry" />
        </mxCell>
        <mxCell id="Qq2-9RFRCcytEWmPRLZd-7" value="Создание массива, в котором будут храниться номера кавычек&lt;div&gt;a = [2]&lt;/div&gt;" style="rounded=0;whiteSpace=wrap;html=1;" vertex="1" parent="1">
          <mxGeometry x="320" y="90" width="160" height="70" as="geometry" />
        </mxCell>
        <mxCell id="Qq2-9RFRCcytEWmPRLZd-16" value="" style="edgeStyle=orthogonalEdgeStyle;rounded=0;orthogonalLoop=1;jettySize=auto;html=1;" edge="1" parent="1" source="Qq2-9RFRCcytEWmPRLZd-11" target="Qq2-9RFRCcytEWmPRLZd-14">
          <mxGeometry relative="1" as="geometry" />
        </mxCell>
        <mxCell id="Qq2-9RFRCcytEWmPRLZd-17" value="Да" style="edgeLabel;html=1;align=center;verticalAlign=middle;resizable=0;points=[];" vertex="1" connectable="0" parent="Qq2-9RFRCcytEWmPRLZd-16">
          <mxGeometry x="-0.0074" y="2" relative="1" as="geometry">
            <mxPoint x="1" as="offset" />
          </mxGeometry>
        </mxCell>
        <mxCell id="Qq2-9RFRCcytEWmPRLZd-11" value="Является ли символ кавычкой&lt;div&gt;if str[i] == &#39;&quot;&#39;&lt;/div&gt;" style="rhombus;whiteSpace=wrap;html=1;" vertex="1" parent="1">
          <mxGeometry x="287.5" y="450" width="225" height="120" as="geometry" />
        </mxCell>
        <mxCell id="Qq2-9RFRCcytEWmPRLZd-33" value="" style="edgeStyle=orthogonalEdgeStyle;rounded=0;orthogonalLoop=1;jettySize=auto;html=1;" edge="1" parent="1" source="Qq2-9RFRCcytEWmPRLZd-14" target="Qq2-9RFRCcytEWmPRLZd-32">
          <mxGeometry relative="1" as="geometry" />
        </mxCell>
        <mxCell id="Qq2-9RFRCcytEWmPRLZd-14" value="Записываем номер в массив&lt;br&gt;a.append(i)" style="rounded=0;whiteSpace=wrap;html=1;" vertex="1" parent="1">
          <mxGeometry x="340" y="620" width="120" height="90" as="geometry" />
        </mxCell>
        <mxCell id="Qq2-9RFRCcytEWmPRLZd-28" value="" style="edgeStyle=orthogonalEdgeStyle;rounded=0;orthogonalLoop=1;jettySize=auto;html=1;" edge="1" parent="1" source="Qq2-9RFRCcytEWmPRLZd-27" target="Qq2-9RFRCcytEWmPRLZd-7">
          <mxGeometry relative="1" as="geometry" />
        </mxCell>
        <mxCell id="Qq2-9RFRCcytEWmPRLZd-27" value="Начало" style="ellipse;whiteSpace=wrap;html=1;" vertex="1" parent="1">
          <mxGeometry x="340" width="120" height="50" as="geometry" />
        </mxCell>
        <mxCell id="Qq2-9RFRCcytEWmPRLZd-30" value="" style="edgeStyle=orthogonalEdgeStyle;rounded=0;orthogonalLoop=1;jettySize=auto;html=1;" edge="1" parent="1" source="Qq2-9RFRCcytEWmPRLZd-29" target="Qq2-9RFRCcytEWmPRLZd-11">
          <mxGeometry relative="1" as="geometry" />
        </mxCell>
        <mxCell id="Qq2-9RFRCcytEWmPRLZd-40" value="Да" style="edgeLabel;html=1;align=center;verticalAlign=middle;resizable=0;points=[];" vertex="1" connectable="0" parent="Qq2-9RFRCcytEWmPRLZd-30">
          <mxGeometry x="0.2" y="-1" relative="1" as="geometry">
            <mxPoint as="offset" />
          </mxGeometry>
        </mxCell>
        <mxCell id="Qq2-9RFRCcytEWmPRLZd-29" value="Перебор символов в строке&amp;nbsp;&lt;div&gt;i &amp;lt;= длина str&lt;/div&gt;" style="rhombus;whiteSpace=wrap;html=1;" vertex="1" parent="1">
          <mxGeometry x="285" y="340" width="230" height="80" as="geometry" />
        </mxCell>
        <mxCell id="Qq2-9RFRCcytEWmPRLZd-32" value="i = i + 1" style="rounded=0;whiteSpace=wrap;html=1;" vertex="1" parent="1">
          <mxGeometry x="340" y="740" width="120" height="60" as="geometry" />
        </mxCell>
        <mxCell id="Qq2-9RFRCcytEWmPRLZd-35" value="" style="endArrow=none;html=1;rounded=0;" edge="1" parent="1">
          <mxGeometry width="50" height="50" relative="1" as="geometry">
            <mxPoint x="200" y="770" as="sourcePoint" />
            <mxPoint x="340" y="770" as="targetPoint" />
          </mxGeometry>
        </mxCell>
        <mxCell id="Qq2-9RFRCcytEWmPRLZd-37" value="" style="endArrow=none;html=1;rounded=0;" edge="1" parent="1">
          <mxGeometry width="50" height="50" relative="1" as="geometry">
            <mxPoint x="200" y="770" as="sourcePoint" />
            <mxPoint x="200" y="380" as="targetPoint" />
          </mxGeometry>
        </mxCell>
        <mxCell id="Qq2-9RFRCcytEWmPRLZd-39" value="" style="endArrow=classic;html=1;rounded=0;entryX=0;entryY=0.5;entryDx=0;entryDy=0;" edge="1" parent="1" target="Qq2-9RFRCcytEWmPRLZd-29">
          <mxGeometry width="50" height="50" relative="1" as="geometry">
            <mxPoint x="200" y="380" as="sourcePoint" />
            <mxPoint x="250" y="330" as="targetPoint" />
          </mxGeometry>
        </mxCell>
        <mxCell id="Qq2-9RFRCcytEWmPRLZd-41" value="" style="endArrow=none;html=1;rounded=0;" edge="1" parent="1">
          <mxGeometry width="50" height="50" relative="1" as="geometry">
            <mxPoint x="512.5" y="510" as="sourcePoint" />
            <mxPoint x="550" y="510" as="targetPoint" />
          </mxGeometry>
        </mxCell>
        <mxCell id="Qq2-9RFRCcytEWmPRLZd-45" value="Нет" style="edgeLabel;html=1;align=center;verticalAlign=middle;resizable=0;points=[];" vertex="1" connectable="0" parent="Qq2-9RFRCcytEWmPRLZd-41">
          <mxGeometry x="-0.0667" relative="1" as="geometry">
            <mxPoint x="1" as="offset" />
          </mxGeometry>
        </mxCell>
        <mxCell id="Qq2-9RFRCcytEWmPRLZd-42" value="" style="endArrow=none;html=1;rounded=0;" edge="1" parent="1">
          <mxGeometry width="50" height="50" relative="1" as="geometry">
            <mxPoint x="550" y="770" as="sourcePoint" />
            <mxPoint x="550" y="510" as="targetPoint" />
          </mxGeometry>
        </mxCell>
        <mxCell id="Qq2-9RFRCcytEWmPRLZd-44" value="" style="endArrow=classic;html=1;rounded=0;entryX=1;entryY=0.5;entryDx=0;entryDy=0;" edge="1" parent="1" target="Qq2-9RFRCcytEWmPRLZd-32">
          <mxGeometry width="50" height="50" relative="1" as="geometry">
            <mxPoint x="550" y="770" as="sourcePoint" />
            <mxPoint x="600" y="720" as="targetPoint" />
          </mxGeometry>
        </mxCell>
        <mxCell id="Qq2-9RFRCcytEWmPRLZd-55" value="" style="edgeStyle=orthogonalEdgeStyle;rounded=0;orthogonalLoop=1;jettySize=auto;html=1;" edge="1" parent="1" source="Qq2-9RFRCcytEWmPRLZd-46">
          <mxGeometry relative="1" as="geometry">
            <mxPoint x="430" y="950" as="targetPoint" />
          </mxGeometry>
        </mxCell>
        <mxCell id="Qq2-9RFRCcytEWmPRLZd-59" value="" style="edgeStyle=orthogonalEdgeStyle;rounded=0;orthogonalLoop=1;jettySize=auto;html=1;" edge="1" parent="1" source="Qq2-9RFRCcytEWmPRLZd-46" target="Qq2-9RFRCcytEWmPRLZd-58">
          <mxGeometry relative="1" as="geometry" />
        </mxCell>
        <mxCell id="Qq2-9RFRCcytEWmPRLZd-46" value="Есть ли в массиве a больше или равно 2 элементов&amp;nbsp;" style="rhombus;whiteSpace=wrap;html=1;" vertex="1" parent="1">
          <mxGeometry x="280" y="840" width="300" height="80" as="geometry" />
        </mxCell>
        <mxCell id="Qq2-9RFRCcytEWmPRLZd-47" value="" style="endArrow=none;html=1;rounded=0;" edge="1" parent="1">
          <mxGeometry width="50" height="50" relative="1" as="geometry">
            <mxPoint x="515" y="380" as="sourcePoint" />
            <mxPoint x="640" y="380" as="targetPoint" />
          </mxGeometry>
        </mxCell>
        <mxCell id="Qq2-9RFRCcytEWmPRLZd-52" value="Нет" style="edgeLabel;html=1;align=center;verticalAlign=middle;resizable=0;points=[];" vertex="1" connectable="0" parent="Qq2-9RFRCcytEWmPRLZd-47">
          <mxGeometry x="-0.632" y="3" relative="1" as="geometry">
            <mxPoint as="offset" />
          </mxGeometry>
        </mxCell>
        <mxCell id="Qq2-9RFRCcytEWmPRLZd-49" value="" style="endArrow=none;html=1;rounded=0;" edge="1" parent="1">
          <mxGeometry width="50" height="50" relative="1" as="geometry">
            <mxPoint x="640" y="380" as="sourcePoint" />
            <mxPoint x="640" y="880" as="targetPoint" />
          </mxGeometry>
        </mxCell>
        <mxCell id="Qq2-9RFRCcytEWmPRLZd-50" value="" style="endArrow=classic;html=1;rounded=0;entryX=1;entryY=0.5;entryDx=0;entryDy=0;" edge="1" parent="1" target="Qq2-9RFRCcytEWmPRLZd-46">
          <mxGeometry width="50" height="50" relative="1" as="geometry">
            <mxPoint x="640" y="880" as="sourcePoint" />
            <mxPoint x="640" y="840" as="targetPoint" />
          </mxGeometry>
        </mxCell>
        <mxCell id="Qq2-9RFRCcytEWmPRLZd-56" value="Да" style="text;html=1;align=center;verticalAlign=middle;resizable=0;points=[];autosize=1;strokeColor=none;fillColor=none;" vertex="1" parent="1">
          <mxGeometry x="411" y="918" width="40" height="30" as="geometry" />
        </mxCell>
        <mxCell id="Qq2-9RFRCcytEWmPRLZd-61" value="" style="edgeStyle=orthogonalEdgeStyle;rounded=0;orthogonalLoop=1;jettySize=auto;html=1;" edge="1" parent="1" source="Qq2-9RFRCcytEWmPRLZd-57" target="Qq2-9RFRCcytEWmPRLZd-60">
          <mxGeometry relative="1" as="geometry" />
        </mxCell>
        <mxCell id="Qq2-9RFRCcytEWmPRLZd-57" value="Вывод среза изначальной &lt;br&gt;строки по номерам, &lt;br&gt;имеющимся в массиве а&lt;div&gt;print(str[ a[0]+1 : a[1] ])&lt;/div&gt;" style="shape=parallelogram;perimeter=parallelogramPerimeter;whiteSpace=wrap;html=1;fixedSize=1;" vertex="1" parent="1">
          <mxGeometry x="341" y="948" width="180" height="102" as="geometry" />
        </mxCell>
        <mxCell id="Qq2-9RFRCcytEWmPRLZd-58" value="Вывод сообщения&lt;br&gt;&quot;Строка в кавычках не обнаружена&quot;" style="shape=parallelogram;perimeter=parallelogramPerimeter;whiteSpace=wrap;html=1;fixedSize=1;" vertex="1" parent="1">
          <mxGeometry x="90" y="850" width="150" height="60" as="geometry" />
        </mxCell>
        <mxCell id="Qq2-9RFRCcytEWmPRLZd-60" value="Конец" style="ellipse;whiteSpace=wrap;html=1;" vertex="1" parent="1">
          <mxGeometry x="371" y="1080" width="120" height="80" as="geometry" />
        </mxCell>
        <mxCell id="Qq2-9RFRCcytEWmPRLZd-62" value="" style="endArrow=none;html=1;rounded=0;" edge="1" parent="1">
          <mxGeometry width="50" height="50" relative="1" as="geometry">
            <mxPoint x="160" y="1120" as="sourcePoint" />
            <mxPoint x="160" y="910" as="targetPoint" />
          </mxGeometry>
        </mxCell>
        <mxCell id="Qq2-9RFRCcytEWmPRLZd-63" value="" style="endArrow=classic;html=1;rounded=0;" edge="1" parent="1">
          <mxGeometry width="50" height="50" relative="1" as="geometry">
            <mxPoint x="160" y="1120" as="sourcePoint" />
            <mxPoint x="370" y="1120" as="targetPoint" />
          </mxGeometry>
        </mxCell>
        <mxCell id="Qq2-9RFRCcytEWmPRLZd-67" value="" style="edgeStyle=orthogonalEdgeStyle;rounded=0;orthogonalLoop=1;jettySize=auto;html=1;" edge="1" parent="1" source="Qq2-9RFRCcytEWmPRLZd-64" target="Qq2-9RFRCcytEWmPRLZd-29">
          <mxGeometry relative="1" as="geometry" />
        </mxCell>
        <mxCell id="Qq2-9RFRCcytEWmPRLZd-64" value="i = 0" style="rounded=0;whiteSpace=wrap;html=1;" vertex="1" parent="1">
          <mxGeometry x="360" y="280" width="80" height="40" as="geometry" />
        </mxCell>
      </root>
    </mxGraphModel>
  </diagram>
</mxfile>
